<?xml version="1.0" standalone="no"?>
<!DOCTYPE svg PUBLIC "-//W3C//DTD SVG 1.1//EN" "http://www.w3.org/Graphics/SVG/1.1/DTD/svg11.dtd" >
<svg xmlns="http://www.w3.org/2000/svg">
<metadata></metadata>
<defs>
<font id="trump_gothic_proitalic" horiz-adv-x="864" >
<font-face units-per-em="2048" ascent="1597" descent="-451" />
<missing-glyph horiz-adv-x="249" />
<glyph unicode="&#x28;C&#x29;" horiz-adv-x="1406" d="M90 778q68 385 264 593t523 208q164 0 279 -55t175 -158t75 -251t-20 -335q-68 -382 -265.5 -589t-526.5 -207q-326 0 -449 205t-55 589zM207 786q-58 -334 42.5 -512t371.5 -178q272 0 431.5 178t217.5 504q21 126 22 233t-26.5 191.5t-79 143.5t-135 90.5t-195.5 31.5 q-141 0 -252.5 -48.5t-189.5 -140t-128.5 -214t-78.5 -279.5zM459 567l78 434q16 96 45.5 162t69.5 101.5t84 50t100 14.5q44 0 77 -9t61 -30.5t40.5 -59t17 -94t-11.5 -135.5l-14 -79h-127l22 135q14 78 -10.5 116.5t-75.5 38.5t-90 -38.5t-53 -116.5l-94 -545 q-14 -78 10.5 -117t75.5 -39q50 0 89.5 39t53.5 117l18 115h127l-10 -60q-16 -96 -45.5 -162t-69.5 -101t-84 -49.5t-100 -14.5q-44 0 -77 8.5t-61 30.5t-40.5 59t-17 93.5t11.5 135.5z" />
<glyph unicode="&#x28;R&#x29;" horiz-adv-x="753" d="M150 1180q34 192 137 295.5t266 103.5q166 0 231.5 -105.5t32.5 -293.5q-34 -192 -137 -295t-266 -103t-230.5 102t-33.5 296zM227 1184q-28 -164 19 -244t184 -80q136 0 208 79t101 241q29 163 -16.5 243t-181.5 80q-140 0 -213 -80.5t-101 -238.5zM324 938l86 487h122 q70 0 98.5 -33t16.5 -112q-17 -117 -98 -147l35 -195h-84l-33 184h-27l-32 -184h-84zM455 1204h37q9 0 17 1.5t14.5 5t11 6t8.5 9t6 9.5t5 11t3.5 11t3 12.5t2.5 10.5q5 26 -5.5 47t-39.5 21h-37z" />
<glyph unicode="&#x28;TM&#x29;" horiz-adv-x="1204" d="M190 1475l19 94h436l-18 -94h-170l-111 -627h-96l110 627h-170zM586 848l129 721h129l67 -506l248 506h131l-129 -721h-96l98 551l-272 -551h-49l-64 547l-98 -547h-94z" />
<glyph unicode="&#xfb01;" horiz-adv-x="632" d="M14 0l185 1049h-113l18 112h113l21 113q32 176 82.5 241.5t146.5 65.5q37 0 82 -10l-19 -103q-18 2 -47 2q-55 0 -76.5 -29t-35.5 -110l-31 -170h133l-18 -112h-133l-185 -1049h-123zM340 0l203 1161h123l-203 -1161h-123zM555 1403q7 39 39.5 65.5t69.5 26.5 q38 0 60 -27t15 -65q-6 -37 -37.5 -64.5t-70.5 -27.5q-38 0 -60 27t-16 65z" />
<glyph unicode="&#xfb02;" horiz-adv-x="634" d="M14 0l185 1049h-113l18 112h113l21 113q32 176 82.5 241.5t146.5 65.5q37 0 82 -10l-19 -103q-18 2 -47 2q-55 0 -76.5 -29t-35.5 -110l-31 -170h133l-18 -112h-133l-185 -1049h-123zM340 0l276 1569h123l-276 -1569h-123z" />
<glyph unicode="&#xfb03;" horiz-adv-x="958" d="M14 0l185 1049h-113l18 112h113l21 113q32 176 82.5 241.5t146.5 65.5q37 0 82 -10l-19 -103q-18 2 -47 2q-55 0 -76.5 -29t-35.5 -110l-31 -170h203l20 113q32 176 83 241.5t147 65.5q36 0 81 -10l-18 -103q-18 2 -47 2q-55 0 -77 -29.5t-36 -109.5l-30 -170h133 l-19 -112h-133l-184 -1049h-123l184 1049h-202l-185 -1049h-123zM666 0l202 1161h123l-203 -1161h-122zM881 1403q7 39 39 65.5t69 26.5q38 0 60.5 -27t15.5 -65q-6 -37 -38 -64.5t-71 -27.5q-38 0 -59.5 26.5t-15.5 65.5z" />
<glyph unicode="&#xfb04;" horiz-adv-x="960" d="M14 0l185 1049h-113l18 112h113l21 113q32 176 82.5 241.5t146.5 65.5q37 0 82 -10l-19 -103q-18 2 -47 2q-55 0 -76.5 -29t-35.5 -110l-31 -170h203l20 113q32 176 83 241.5t147 65.5q36 0 81 -10l-18 -103q-18 2 -47 2q-55 0 -77 -29.5t-36 -109.5l-30 -170h133 l-19 -112h-133l-184 -1049h-123l184 1049h-202l-185 -1049h-123zM666 0l276 1569h123l-277 -1569h-122z" />
<glyph horiz-adv-x="2048" />
<glyph horiz-adv-x="2048" />
<glyph unicode="&#xd;" horiz-adv-x="2048" />
<glyph unicode=" "  horiz-adv-x="249" />
<glyph unicode="&#x09;" horiz-adv-x="249" />
<glyph unicode="&#xa0;" horiz-adv-x="249" />
<glyph unicode="!" horiz-adv-x="305" d="M-27 70q6 34 37 60t66 26t55.5 -25.5t13.5 -60.5q-6 -35 -35.5 -60.5t-64.5 -25.5t-56.5 25.5t-15.5 60.5zM61 309l195 1260h141l-254 -1260h-82z" />
<glyph unicode="&#x22;" horiz-adv-x="411" d="M178 1139l45 430h123l-106 -430h-62zM369 1139l45 430h123l-107 -430h-61z" />
<glyph unicode="#" horiz-adv-x="948" d="M6 102l189 435h-166l49 114h166l100 234h-192l49 114h194l187 435h116l-186 -435h193l186 435h117l-187 -435h166l-49 -114h-168l-100 -234h194l-49 -114h-194l-189 -435h-117l189 435h-193l-188 -435h-117zM360 651h193l100 234h-192z" />
<glyph unicode="$" horiz-adv-x="616" d="M18 322l37 202h127l-49 -278q-11 -66 5.5 -104t51.5 -48l109 615q-21 25 -32 40t-29.5 40t-29 43.5t-24 44.5t-20 49t-11.5 50.5t-4.5 56.5t5.5 59l36 204q13 72 37 125.5t49.5 83.5t60 50t60 27t58.5 11l18 107h68l-19 -109q21 -3 38 -7.5t37 -14t34.5 -23.5t27.5 -36.5 t19 -51.5t5.5 -70.5t-9.5 -91.5l-49 -274h-127l53 301q22 122 -51 150l-113 -648q22 -24 31 -34t29 -34t28.5 -38.5t23 -39t20.5 -44.5t12 -46t5 -53.5t-6 -56.5l-28 -157q-29 -169 -89.5 -253.5t-176.5 -93.5l-19 -106h-67l18 106q-80 5 -120 48t-44 118.5t14 180.5z M258 96q37 11 65 48.5t39 101.5l37 211q14 82 -47 176zM285 1110q-20 -115 47 -213l100 578q-39 -11 -69.5 -51.5t-40.5 -100.5z" />
<glyph unicode="%" horiz-adv-x="1212" d="M102 864l72 408q30 172 80.5 239.5t161.5 67.5q108 0 136 -68.5t-5 -238.5l-72 -408q-31 -174 -81 -240.5t-158 -66.5q-111 0 -138.5 70t4.5 237zM207 815q-16 -86 -6.5 -121t51.5 -35t64.5 34.5t37.5 121.5l88 506q16 86 6.5 121t-51.5 35t-64.5 -34.5t-37.5 -121.5z M244 0l698 1569h105l-699 -1569h-104zM735 291l72 407q30 173 80.5 240.5t161.5 67.5q107 0 135 -67.5t-4 -240.5l-72 -407q-31 -174 -81.5 -240.5t-158.5 -66.5q-113 0 -140 71.5t7 235.5zM838 242q-15 -86 -5 -121t52 -35t63.5 34t36.5 122l90 506q15 86 5 120.5t-52 34.5 t-63.5 -34t-36.5 -121z" />
<glyph unicode="&#x26;" horiz-adv-x="665" d="M29 281l45 262q20 114 69.5 180.5t151.5 97.5q-94 25 -120.5 87t-6.5 171l39 211q56 307 289 307q120 0 172 -77.5t22 -229.5l-12 -61h-127l18 96q13 73 -12 114.5t-76 41.5q-48 0 -87.5 -37t-53.5 -119l-55 -309q-7 -40 6.5 -69t41 -42t52.5 -18.5t51 -5.5h53l23 123 h127l-23 -123h64l-21 -125h-63l-84 -475q-28 -158 -106.5 -233t-194.5 -75q-235 0 -182 308zM150 246q-14 -80 12 -118t74 -38t88.5 38t54.5 118l90 510h-53q-26 0 -53.5 -5.5t-60 -18.5t-56.5 -42t-31 -69z" />
<glyph unicode="'" horiz-adv-x="221" d="M178 1139l45 430h123l-106 -430h-62z" />
<glyph unicode="(" horiz-adv-x="342" d="M39 -352q-80 468 8 960q89 497 332 961h125q-111 -195 -198.5 -446t-133.5 -515q-47 -265 -48.5 -518t40.5 -442h-125z" />
<glyph unicode=")" horiz-adv-x="342" d="M-152 -352q110 196 197 446.5t133 513.5q47 265 48.5 518.5t-40.5 442.5h125q79 -475 -8 -961q-87 -489 -332 -960h-123z" />
<glyph unicode="*" horiz-adv-x="550" d="M160 1284l18 100l168 -10l-78 158l97 51l57 -172l115 170l77 -49l-131 -160l172 10l-18 -98l-170 10l78 -159l-96 -50l-56 162l-112 -164l-78 52l135 159z" />
<glyph unicode="+" d="M100 688l19 111h293l53 295h115l-54 -295h293l-18 -111h-293l-53 -295h-115l53 295h-293z" />
<glyph unicode="," horiz-adv-x="391" d="M-143 -276l229 446h150l-312 -446h-67z" />
<glyph unicode="-" horiz-adv-x="395" d="M57 541l21 114h264l-20 -114h-265z" />
<glyph unicode="." horiz-adv-x="303" d="M-27 70q6 34 37.5 60t67.5 26t54.5 -25.5t12.5 -60.5t-35.5 -60.5t-64.5 -25.5t-56.5 25.5t-15.5 60.5z" />
<glyph unicode="/" horiz-adv-x="575" d="M-74 0l678 1569h117l-678 -1569h-117z" />
<glyph unicode="0" horiz-adv-x="655" d="M35 301l172 967q17 97 46.5 163.5t70 101t83 48.5t97.5 14q57 0 96.5 -15t68 -52t32 -100t-10.5 -160l-172 -967q-17 -97 -46.5 -163.5t-70 -101.5t-83 -49t-97.5 -14q-57 0 -96.5 15t-68 52.5t-32 100.5t10.5 160zM154 246q-14 -81 11.5 -118.5t74.5 -37.5t89 38.5 t54 117.5l188 1077q14 81 -11.5 118.5t-74.5 37.5t-89 -38.5t-54 -117.5z" />
<glyph unicode="1" horiz-adv-x="442" d="M96 0l250 1419l-201 -76l23 125l229 101h103l-277 -1569h-127z" />
<glyph unicode="2" horiz-adv-x="593" d="M-41 0l31 176q14 81 68.5 181.5t124 196.5t138.5 191.5t122.5 192.5t66.5 172l37 213q14 80 -12 118t-74 38q-49 0 -89.5 -38t-54.5 -118l-47 -270h-127l43 241q54 301 293 301q244 0 191 -301l-37 -207q-13 -77 -67.5 -179t-124 -202t-139 -199.5t-124 -201 t-67.5 -178.5h315l-20 -127h-447z" />
<glyph unicode="3" horiz-adv-x="630" d="M8 281l39 221h127l-45 -256q-14 -80 12 -118t74 -38t88.5 38t54.5 118l66 375q6 33 -3 58t-25.5 39t-39.5 23t-43 12t-39 3t-43 -4l21 118q12 -4 39 -4q26 0 53.5 5.5t60 18.5t56.5 42t31 69l57 324q13 75 -12.5 115.5t-77.5 40.5q-49 0 -88 -39.5t-52 -116.5l-47 -264 h-127l41 229q55 307 295 307q112 0 165 -73.5t24 -233.5l-39 -211q-20 -113 -66 -172.5t-151 -85.5q94 -32 118.5 -99t4.5 -179l-45 -262q-56 -308 -297 -308q-242 0 -187 308z" />
<glyph unicode="4" horiz-adv-x="612" d="M-8 434l22 127l447 1008h174l-178 -1008h123l-23 -127h-123l-76 -434h-127l76 434h-315zM145 561h185l153 873z" />
<glyph unicode="5" horiz-adv-x="624" d="M25 285l22 133h127l-29 -168q-14 -83 11.5 -121.5t72.5 -38.5q49 0 90.5 40t55.5 120l84 481q7 58 6 92t-16.5 52t-30 23t-35.5 5q-121 0 -152 -170h-127l148 836h432l-22 -127h-306l-96 -539q33 54 85 84.5t106 30.5q81 0 121.5 -67.5t17.5 -198.5l-82 -467 q-29 -163 -102.5 -237.5t-194.5 -74.5q-118 0 -166 73.5t-20 238.5z" />
<glyph unicode="6" horiz-adv-x="647" d="M35 285l178 1011q52 299 297 299q117 0 164 -70.5t20 -228.5l-24 -145h-127l28 172q14 83 -12.5 119.5t-73.5 36.5q-48 0 -88.5 -38t-54.5 -118l-78 -440q33 54 86 84t107 30q81 0 121.5 -67.5t17.5 -198.5l-78 -446q-29 -162 -102 -237t-193 -75q-118 0 -168 73.5 t-20 238.5zM156 250q-14 -83 12 -121.5t74 -38.5t88.5 40t54.5 120l80 457q31 176 -76 176q-121 0 -153 -176z" />
<glyph unicode="7" horiz-adv-x="591" d="M-84 0l674 1442h-397l22 127h551l-8 -37l-703 -1532h-139z" />
<glyph unicode="8" horiz-adv-x="645" d="M27 281l57 333q30 171 178 258q-56 24 -80 91t-6 167l29 160q55 307 295 307q115 0 165.5 -75t22.5 -232l-29 -160q-18 -100 -66 -168t-110 -90q50 -38 74.5 -109t7.5 -169l-55 -313q-56 -308 -297 -308q-240 0 -186 308zM147 246q-14 -80 12 -118t74 -38q49 0 89.5 38 t54.5 118l74 426q14 78 -12.5 106.5t-78.5 28.5q-116 0 -139 -135zM289 1053q-14 -78 12.5 -106.5t77.5 -28.5q116 0 139 135l49 272q14 81 -14 118.5t-76 37.5q-49 0 -87.5 -39.5t-51.5 -116.5z" />
<glyph unicode="9" horiz-adv-x="647" d="M18 272l25 146h127l-29 -172q-14 -83 12.5 -119.5t73.5 -36.5q49 0 89.5 38t54.5 118l78 440q-33 -54 -86 -84.5t-107 -30.5q-80 0 -121 68t-18 199l78 446q29 162 101.5 236.5t192.5 74.5q118 0 168.5 -73t20.5 -238l-178 -1012q-52 -299 -297 -299q-117 0 -164.5 70.5 t-20.5 228.5zM248 862q-31 -176 76 -176q121 0 153 176l80 457q14 83 -12 121.5t-74 38.5t-88.5 -40t-54.5 -120z" />
<glyph unicode=":" horiz-adv-x="303" d="M-27 70q6 34 37 60t66 26t55.5 -25.5t13.5 -60.5q-6 -35 -35.5 -60.5t-64.5 -25.5t-56.5 25.5t-15.5 60.5zM102 791q6 35 36 60.5t65 25.5t56 -25.5t15 -60.5t-36.5 -60.5t-65.5 -25.5t-55.5 25.5t-14.5 60.5z" />
<glyph unicode=";" horiz-adv-x="352" d="M-186 -276l229 446h150l-310 -446h-69zM143 791q6 35 36 60.5t65 25.5t56 -25.5t15 -60.5t-36.5 -60.5t-65.5 -25.5t-55.5 25.5t-14.5 60.5z" />
<glyph unicode="&#x3c;" d="M125 743l670 656l77 -80l-602 -576l400 -575l-107 -80z" />
<glyph unicode="=" d="M72 532l20 111h701l-21 -111h-700zM127 840l18 110h701l-19 -110h-700z" />
<glyph unicode="&#x3e;" d="M45 168l604 575l-401 576l106 80l441 -656l-672 -655z" />
<glyph unicode="?" horiz-adv-x="563" d="M72 70q6 34 36.5 60t65.5 26t56 -25.5t14 -60.5q-6 -35 -36 -60.5t-65 -25.5t-56 25.5t-15 60.5zM123 1061l41 229q55 307 295 307q116 0 166 -75t22 -232l-39 -211q-24 -141 -87 -224t-183 -93l-100 -455h-86l77 563q16 -4 39 -4q26 0 53.5 5.5t60 18.5t56.5 42t31 69 l57 324q13 75 -12.5 115.5t-77.5 40.5q-49 0 -87.5 -39.5t-51.5 -116.5l-47 -264h-127z" />
<glyph unicode="@" horiz-adv-x="1374" d="M-6 322q27 155 82.5 306t139 287t185.5 239.5t231.5 164.5t268.5 61q92 0 167.5 -27.5t127 -76.5t87 -115t51 -146t15.5 -167.5t-16 -179.5q-22 -127 -72 -251t-120.5 -228t-166 -168t-198.5 -64q-153 0 -141 158q-42 -59 -105 -95t-120 -36q-50 0 -66.5 29.5t-5.5 92.5 q13 76 57 185l135 348q71 182 116 247.5t120 65.5q50 0 73 -24t44 -76l30 82h123q-294 -755 -305 -795q-9 -40 5.5 -69t64.5 -29q92 0 183 107.5t150 250.5t83 279q15 96 13.5 183t-26.5 161t-66.5 128.5t-108.5 85t-152 30.5q-115 0 -224 -56t-195.5 -150t-158.5 -217 t-120.5 -258t-72.5 -272q-57 -323 47.5 -493t333.5 -170q154 0 316 92l10 -107q-96 -53 -174 -76.5t-172 -23.5q-285 0 -411.5 206.5t-61.5 580.5zM502 252q-34 -90 -29 -124q5 -32 39 -32q76 0 137 156q187 478 197 518q16 64 -47 64q-41 0 -69 -34t-62 -122z" />
<glyph unicode="A" horiz-adv-x="589" d="M-90 0l487 1571h144l-64 -1571h-127l23 389h-223l-113 -389h-127zM186 506h191l51 840z" />
<glyph unicode="B" horiz-adv-x="628" d="M-23 0l277 1569h213q73 0 117.5 -15t72 -52t28 -99.5t-14.5 -157.5l-37 -201q-36 -200 -191 -237q82 -18 111.5 -87.5t13.5 -164.5l-39 -227q-18 -102 -44 -166t-68 -100t-93 -49t-130 -13h-216zM125 127h125q60 0 94 36t49 120l53 301q27 155 -108 155h-105zM256 866 h104q62 0 94.5 35t47.5 121l49 268q15 82 -7 117t-81 35h-105z" />
<glyph unicode="C" horiz-adv-x="612" d="M25 301l172 967q17 96 46.5 162t69.5 101t83.5 49.5t99.5 14.5q44 0 77 -8.5t61.5 -30.5t41 -59t16.5 -93.5t-12 -135.5l-43 -244h-127l51 299q13 78 -11.5 117t-74.5 39q-51 0 -90.5 -39.5t-52.5 -116.5l-189 -1077q-13 -78 11.5 -117t74.5 -39q51 0 90.5 39t53.5 117 l49 278h127l-41 -223q-18 -96 -47 -162t-69 -101.5t-83.5 -50t-99.5 -14.5q-44 0 -77 9t-61.5 30.5t-41 59t-16.5 94t12 135.5z" />
<glyph unicode="D" horiz-adv-x="626" d="M-23 0l277 1569h195q63 0 104 -7.5t72.5 -28t44.5 -58t13 -94.5t-15 -140l-160 -913q-18 -104 -44 -168t-68.5 -99.5t-93.5 -48t-130 -12.5h-195zM125 127h104q60 0 94.5 36t49.5 120l176 1003q15 85 -5.5 120.5t-80.5 35.5h-105z" />
<glyph unicode="E" horiz-adv-x="546" d="M-23 0l277 1569h418l-23 -127h-291l-104 -588h276l-22 -127h-277l-106 -600h291l-21 -127h-418z" />
<glyph unicode="F" horiz-adv-x="538" d="M-23 0l277 1569h418l-23 -127h-291l-104 -588h276l-22 -127h-277l-127 -727h-127z" />
<glyph unicode="G" horiz-adv-x="643" d="M25 301l172 967q17 97 46.5 163t70 101t85.5 49t103 14q129 0 179.5 -73t18.5 -254l-45 -246h-127l54 301q14 82 -13 119t-84 37q-59 0 -99.5 -40t-53.5 -116l-189 -1077q-14 -82 13 -119t84 -37q58 0 99 40t54 116l70 401h-137l22 123h264l-84 -469q-17 -98 -46.5 -164 t-71 -101t-86.5 -49t-103 -14q-47 0 -81.5 8.5t-64.5 30.5t-43.5 59t-18 94t11.5 136z" />
<glyph unicode="H" horiz-adv-x="643" d="M-23 0l277 1569h127l-125 -705h229l125 705h127l-276 -1569h-127l129 737h-230l-129 -737h-127z" />
<glyph unicode="I" horiz-adv-x="286" d="M-23 0l277 1569h127l-277 -1569h-127z" />
<glyph unicode="J" horiz-adv-x="286" d="M-213 -393l20 117h9q48 0 86.5 37.5t52.5 117.5l299 1690h127l-293 -1659q-14 -79 -41 -137t-56.5 -89t-67.5 -49.5t-66.5 -23t-61.5 -4.5h-8z" />
<glyph unicode="K" horiz-adv-x="608" d="M-23 0l277 1569h127l-277 -1569h-127zM244 784l389 785h127l-375 -778l137 -791h-127z" />
<glyph unicode="L" horiz-adv-x="432" d="M-23 0l277 1569h127l-256 -1442h209l-21 -127h-336z" />
<glyph unicode="M" horiz-adv-x="897" d="M-23 0l277 1569h195l-25 -1127l373 1127h194l-276 -1569h-127l233 1280l-446 -1280h-82l29 1288l-218 -1288h-127z" />
<glyph unicode="N" horiz-adv-x="688" d="M-23 0l277 1569h121l88 -1114l192 1114h127l-276 -1569h-131l-82 1098l-189 -1098h-127z" />
<glyph unicode="O" horiz-adv-x="630" d="M23 301l172 967q17 97 46.5 163.5t70 101t83 48.5t97.5 14q57 0 96.5 -15t68 -52t32 -100t-10.5 -160l-172 -967q-17 -97 -46.5 -163.5t-70 -101.5t-83 -49t-97.5 -14q-57 0 -96.5 15t-68 52.5t-32 100.5t10.5 160zM141 246q-14 -81 11.5 -118.5t74.5 -37.5t89.5 38.5 t54.5 117.5l188 1077q14 81 -11.5 118.5t-74.5 37.5t-89 -38.5t-54 -117.5z" />
<glyph unicode="P" horiz-adv-x="598" d="M-23 0l277 1569h195q63 0 103 -7t72 -27t45 -56.5t13.5 -94.5t-14.5 -143l-41 -242q-18 -103 -44.5 -167.5t-69 -99.5t-93.5 -47.5t-131 -12.5h-68l-117 -672h-127zM244 799h104q60 0 94.5 35.5t49.5 119.5l57 332q15 85 -5.5 120.5t-80.5 35.5h-105z" />
<glyph unicode="Q" horiz-adv-x="630" d="M25 301l172 967q17 97 46.5 163.5t70 101t83 48.5t97.5 14q57 0 96.5 -15t68 -52t32 -100t-10.5 -160l-172 -967q-22 -124 -61 -193t-97 -102l66 -225l-105 -51l-67 245q-10 -2 -35 -2q-43 0 -75 8.5t-61 30t-42 58.5t-17.5 94t11.5 137zM143 246q-14 -81 11.5 -118.5 t74.5 -37.5t89.5 38.5t54.5 117.5l188 1077q14 81 -11.5 118.5t-74.5 37.5t-89 -38.5t-54 -117.5z" />
<glyph unicode="R" horiz-adv-x="608" d="M-23 0l277 1569h199q63 0 104 -8t71.5 -28t42.5 -57.5t12 -94.5t-15 -140l-41 -235q-25 -144 -72.5 -216t-134.5 -94l72 -696h-127l-66 682h-76l-119 -682h-127zM246 809h104q60 0 94.5 36t49.5 120l55 321q15 85 -5.5 120.5t-80.5 35.5h-105z" />
<glyph unicode="S" horiz-adv-x="604" d="M14 322l37 202h127l-49 -278q-14 -80 12 -118t74 -38t88.5 38t54.5 118l37 211q9 50 -9 100.5t-50.5 91.5t-70 91.5t-68.5 98.5t-45.5 114.5t-1.5 138.5l36 200q55 303 293 303q244 0 189 -307l-47 -266h-127l53 301q14 80 -12 118t-74 38q-49 0 -89.5 -38t-54.5 -118 l-36 -213q-10 -56 1 -107t35.5 -88.5t56 -77.5t63 -74.5t55.5 -79t34.5 -92t-0.5 -112.5l-28 -157q-31 -180 -98.5 -264.5t-202.5 -84.5q-136 0 -175.5 85.5t-7.5 263.5z" />
<glyph unicode="T" horiz-adv-x="548" d="M109 0l253 1442h-194l22 127h517l-23 -127h-195l-253 -1442h-127z" />
<glyph unicode="U" horiz-adv-x="638" d="M27 301l225 1268h127l-234 -1323q-14 -78 10.5 -117t75.5 -39t90.5 39t53.5 117l233 1323h127l-225 -1268q-16 -96 -45.5 -162t-69.5 -101.5t-84 -50t-100 -14.5q-44 0 -77 9t-61 30.5t-40.5 59t-17 94t11.5 135.5z" />
<glyph unicode="V" horiz-adv-x="565" d="M109 0l84 1569h126l-106 -1368l379 1368h127l-467 -1569h-143z" />
<glyph unicode="W" horiz-adv-x="935" d="M92 0l105 1569h127l-113 -1299l364 1299h132l-93 -1299l344 1299h127l-446 -1569h-143l75 1182l-335 -1182h-144z" />
<glyph unicode="X" horiz-adv-x="612" d="M-111 0l406 807l-117 762h129l76 -576l268 576h129l-358 -764l86 -805h-127l-62 629l-303 -629h-127z" />
<glyph unicode="Y" horiz-adv-x="606" d="M139 0l103 586l-49 983h129l20 -762l291 762h129l-397 -983l-103 -586h-123z" />
<glyph unicode="Z" horiz-adv-x="538" d="M-76 0l21 127l563 1315h-311l22 127h465l-8 -37l-600 -1405h352l-20 -127h-484z" />
<glyph unicode="[" horiz-adv-x="397" d="M-72 -348l338 1917h279l-21 -107h-159l-299 -1698h159l-18 -112h-279z" />
<glyph unicode="\" horiz-adv-x="575" d="M203 1569h116l125 -1569h-116z" />
<glyph unicode="]" horiz-adv-x="397" d="M-135 -346l18 113h154l299 1695h-156l21 107h278l-338 -1915h-276z" />
<glyph unicode="^" d="M180 879l359 690h135l110 -690h-129l-82 526l-266 -526h-127z" />
<glyph unicode="_" horiz-adv-x="587" d="M-47 -47l18 94h457l-18 -94h-457z" />
<glyph unicode="`" horiz-adv-x="200" d="M147 1522h146l53 -207h-108z" />
<glyph unicode="a" horiz-adv-x="514" d="M2 291l4 24q29 169 70.5 240.5t122.5 71.5q46 0 72.5 -23t41.5 -74l68 379q15 86 5 121t-52 35t-64 -34.5t-37 -121.5l-20 -118h-123l19 108q26 151 79 215t168 64q106 0 139.5 -61.5t6.5 -217.5l-158 -899h-96l-2 94q-19 -30 -36 -50t-52 -40t-76 -20q-75 0 -92 71.5 t12 235.5zM117 248q-14 -78 -5.5 -116t44.5 -38q82 0 112 176l15 86q13 74 1 113t-53 39t-61.5 -36.5t-34.5 -119.5z" />
<glyph unicode="b" horiz-adv-x="524" d="M-33 0l277 1569h123l-91 -502q20 31 36 50.5t50 40t74 20.5q72 0 89 -70.5t-13 -237.5l-100 -579q-29 -163 -71.5 -235t-119.5 -72q-31 0 -54 10t-36.5 29t-20 34.5t-12.5 36.5l-35 -94h-96zM137 270q-32 -176 51 -176q36 0 57.5 37t35.5 117l116 665q14 78 5.5 116 t-44.5 38q-80 0 -112 -176z" />
<glyph unicode="c" horiz-adv-x="507" d="M0 225l125 711q24 137 85 189.5t155 52.5q45 0 76 -10t55.5 -37t28 -74t-6.5 -121l-35 -201h-123l37 215q20 115 -53 115q-74 0 -94 -115l-129 -739q-20 -115 53 -115q74 0 94 115l43 244h123l-41 -230q-24 -136 -85 -188.5t-154 -52.5q-35 0 -62 6.5t-50.5 22.5 t-34.5 43t-15 69t8 100z" />
<glyph unicode="d" horiz-adv-x="524" d="M8 291l101 579q29 167 72.5 237.5t115.5 70.5q30 0 51.5 -10t34.5 -29.5t19 -34.5t12 -37l90 502h123l-277 -1569h-96l-2 94q-19 -30 -36 -50t-52 -40t-76 -20q-77 0 -93.5 73.5t13.5 233.5zM123 248q-14 -78 -5.5 -116t44.5 -38q80 0 112 176l109 621q32 176 -51 176 q-36 0 -57 -37t-35 -117z" />
<glyph unicode="e" horiz-adv-x="512" d="M-2 225l125 711q24 137 85 189.5t154 52.5q94 0 136 -52.5t18 -189.5l-70 -401h-270l-57 -324q-20 -115 53 -115q74 0 94 115l29 172h123l-27 -158q-23 -133 -84 -187t-155 -54q-96 0 -136.5 54.5t-17.5 186.5zM195 645h147l53 305q20 115 -53 115q-74 0 -94 -115z" />
<glyph unicode="f" horiz-adv-x="372" d="M14 0l185 1049h-113l18 112h113l21 113q32 176 82.5 241.5t146.5 65.5q37 0 82 -10l-19 -103q-18 2 -47 2q-55 0 -76.5 -29t-35.5 -110l-31 -170h133l-18 -112h-133l-185 -1049h-123z" />
<glyph unicode="g" horiz-adv-x="516" d="M-78 -106l27 143q13 72 33 111.5t65 87.5q-14 38 -15 71t12.5 62.5t31.5 53t49 54.5q-36 38 -45 80.5t6 140.5l33 193q28 163 83 225t150 62q60 0 99 -27h165l-14 -76h-98q29 -68 8 -184l-33 -193q-25 -143 -84 -202.5t-153 -59.5q-38 0 -56 4q-27 -17 -40.5 -50t3 -61 t68.5 -28q28 0 48.5 -3.5t42 -13t35 -28.5t22 -47t8 -71.5t-10.5 -100.5l-28 -160q-29 -166 -90 -228.5t-164 -62.5q-114 0 -151 69.5t-7 238.5zM39 -145q-14 -86 -0.5 -121t57.5 -35t70 35.5t41 120.5l31 180q15 92 4.5 123.5t-56.5 31.5q-55 0 -77 -36.5t-39 -128.5z M209 700q-16 -86 -6.5 -120.5t51.5 -34.5t64.5 34t37.5 121l37 209q15 86 5 121t-52 35t-63.5 -34t-36.5 -122z" />
<glyph unicode="h" horiz-adv-x="526" d="M-35 0l277 1569h123l-91 -502q20 31 36 50.5t49.5 40t72.5 20.5q74 0 91 -72.5t-13 -235.5l-152 -870h-122l159 913q14 78 5.5 116t-44.5 38q-80 0 -112 -176l-156 -891h-123z" />
<glyph unicode="i" horiz-adv-x="258" d="M-35 0l203 1161h123l-203 -1161h-123zM180 1403q7 39 39.5 65.5t69.5 26.5q38 0 60.5 -27t15.5 -65q-6 -37 -38 -64.5t-71 -27.5q-38 0 -60 27t-16 65z" />
<glyph unicode="j" horiz-adv-x="258" d="M-242 -412l19 103q16 -2 35 -2q66 0 88.5 35t36.5 122l231 1315h123l-228 -1296q-27 -150 -74.5 -218.5t-150.5 -68.5q-35 0 -80 10zM180 1403q7 39 39.5 65.5t69.5 26.5q38 0 60.5 -27t15.5 -65q-6 -37 -38 -64.5t-71 -27.5q-38 0 -60 27t-16 65z" />
<glyph unicode="k" horiz-adv-x="530" d="M-35 0l277 1569h123l-277 -1569h-123zM195 594l307 567h127l-299 -561l94 -600h-125z" />
<glyph unicode="l" horiz-adv-x="262" d="M-33 0l277 1569h123l-277 -1569h-123z" />
<glyph unicode="m" horiz-adv-x="798" d="M-33 0l203 1161h96l2 -94q19 30 36 50t52 40.5t76 20.5q51 0 74.5 -30.5t25.5 -96.5q33 58 72 92.5t98 34.5q51 0 74.5 -31t24.5 -99.5t-19 -177.5l-151 -870h-123l160 913q14 78 5.5 116t-44.5 38q-81 0 -111 -166l-158 -901h-122l159 913q14 78 5.5 116t-44.5 38 q-80 0 -112 -176l-156 -891h-123z" />
<glyph unicode="n" horiz-adv-x="528" d="M-33 0l203 1161h96l2 -94q19 30 36 50t52 40.5t76 20.5q51 0 74.5 -31t24.5 -99.5t-19 -177.5l-152 -870h-122l159 913q14 78 5.5 116t-44.5 38q-80 0 -112 -176l-156 -891h-123z" />
<glyph unicode="o" horiz-adv-x="520" d="M0 225l125 711q24 137 85 189.5t155 52.5q45 0 76 -10t55.5 -37t28 -74t-6.5 -121l-125 -711q-24 -136 -85 -188.5t-154 -52.5q-35 0 -62 6.5t-50.5 22.5t-34.5 43t-15 69t8 100zM121 211q-20 -115 53 -115q74 0 94 115l129 739q20 115 -53 115q-74 0 -94 -115z" />
<glyph unicode="p" horiz-adv-x="526" d="M-104 -408l274 1569h96l2 -94q19 30 36 50t52 40.5t76 20.5q51 0 74.5 -31t24.5 -99.5t-19 -177.5l-100 -579q-30 -166 -72.5 -236.5t-118.5 -70.5q-89 0 -119 92l-86 -484h-120zM137 270q-32 -176 51 -176q36 0 57.5 37t35.5 117l116 665q14 78 5.5 116t-44.5 38 q-80 0 -112 -176z" />
<glyph unicode="q" horiz-adv-x="526" d="M12 291l101 579q30 167 72.5 237.5t117.5 70.5q31 0 54 -10t36.5 -29t20 -34.5t12.5 -37.5l35 94h96l-276 -1569h-123l86 484q-66 -92 -152 -92q-51 0 -74.5 31t-24.5 99t19 177zM127 248q-14 -78 -5.5 -116t44.5 -38q81 0 113 176l108 621q32 176 -51 176q-36 0 -57 -37 t-35 -117z" />
<glyph unicode="r" horiz-adv-x="389" d="M-33 0l203 1161h96l2 -94q22 38 63.5 73.5t92.5 35.5q20 0 38 -6t26 -12l8 -7l-76 -133q-41 24 -76 24q-40 0 -62.5 -39.5t-39.5 -136.5l-152 -866h-123z" />
<glyph unicode="s" horiz-adv-x="503" d="M-12 270l18 113h123l-23 -137q-16 -74 -8 -112t58 -38q49 0 75.5 34.5t40.5 111.5q9 55 7 99.5t-13.5 74t-28.5 57.5t-37.5 49t-40 47.5t-36 54t-26.5 68.5t-10.5 91.5t11.5 121.5q15 83 39.5 138.5t59 84t71.5 39.5t86 11q109 0 148 -58t12 -209l-25 -137h-122l24 135 q16 92 4 124t-59 32q-44 0 -70.5 -29t-40.5 -114q-12 -68 -9 -121t18 -85t36 -61.5t44.5 -51t44 -52.5t35 -67t16.5 -94.5t-11 -133.5q-14 -80 -38 -134.5t-58.5 -84t-74 -41.5t-93.5 -12q-114 0 -144.5 60.5t-2.5 225.5z" />
<glyph unicode="t" horiz-adv-x="364" d="M45 291l133 758h-92l18 112h93l51 287h123l-52 -287h133l-18 -112h-133l-143 -816q-16 -77 -4 -108t67 -31q29 0 47 2l-18 -102q-48 -10 -88 -10q-75 0 -107 32.5t-30.5 100.5t20.5 174z" />
<glyph unicode="u" horiz-adv-x="528" d="M14 291l152 870h123l-160 -913q-14 -78 -5.5 -116t44.5 -38q81 0 113 176l155 891h123l-203 -1161h-96l-2 94q-19 -30 -36 -50t-52 -40t-76 -20q-51 0 -74.5 31t-24.5 99t19 177z" />
<glyph unicode="v" horiz-adv-x="483" d="M72 0l45 1161h131l-80 -977l266 977h131l-358 -1161h-135z" />
<glyph unicode="w" horiz-adv-x="804" d="M72 0l45 1161h131l-68 -915l254 915h137l-65 -915l252 915h131l-361 -1161h-135l58 862l-244 -862h-135z" />
<glyph unicode="x" horiz-adv-x="491" d="M-92 0l276 594l-71 567h120l46 -393l176 393h125l-279 -569l80 -592h-121l-51 428l-182 -428h-119z" />
<glyph unicode="y" horiz-adv-x="501" d="M-53 -410l125 347l51 1224h131l-70 -964l277 964h131l-514 -1571h-131z" />
<glyph unicode="z" horiz-adv-x="473" d="M-86 0l16 98l461 951h-254l19 112h399l-12 -78l-465 -970h268l-18 -113h-414z" />
<glyph unicode="{" horiz-adv-x="471" d="M0 555l18 104q101 11 150.5 81.5t69.5 185.5l75 422q20 110 71 165.5t124 55.5h110l-20 -107h-76q-17 0 -30.5 -5.5t-23.5 -19t-16.5 -26t-13 -37t-9.5 -41l-9 -49.5l-72 -403q-11 -62 -33 -112.5t-49 -81.5t-48.5 -48.5t-41.5 -28.5q39 -17 68.5 -85.5t9.5 -182.5 l-70 -399q-21 -94 -15.5 -136.5t54.5 -42.5h76l-18 -112h-111q-74 0 -105 59t-14 160l76 422q11 73 10 128.5t-35 91t-102 42.5z" />
<glyph unicode="|" horiz-adv-x="307" d="M-92 -451l360 2048h127l-360 -2048h-127z" />
<glyph unicode="}" horiz-adv-x="471" d="M-135 -348l18 112h74q48 0 66 36.5t38 142.5l70 399q11 60 33.5 111t49 82t49 49.5t40.5 25.5q-13 8 -24.5 20t-27 34.5t-22.5 51.5t-11 71.5t7 93.5l72 403q18 76 12.5 127t-53.5 51h-76l21 107h110q76 0 105.5 -61t11.5 -160l-76 -422q-9 -54 -9.5 -95.5t11 -80 t42.5 -62t81 -29.5l-18 -104q-54 -5 -92 -25t-62 -56t-38 -78t-25 -103l-76 -422q-18 -100 -67.5 -159.5t-125.5 -59.5h-108z" />
<glyph unicode="~" d="M152 1096q100 135 233 135q66 0 160 -41t141 -41q74 0 129 80l80 -66q-52 -70 -115.5 -107.5t-120.5 -37.5q-47 0 -144.5 44t-154.5 44q-81 0 -137 -80z" />
<glyph unicode="&#xa1;" horiz-adv-x="286" d="M-94 -356l252 1259h82l-193 -1259h-141zM156 1143q6 35 35.5 60.5t64.5 25.5t56.5 -25.5t15.5 -60.5t-37 -60.5t-66 -25.5t-55 25.5t-14 60.5z" />
<glyph unicode="&#xa2;" horiz-adv-x="528" d="M49 446l125 711q37 206 174 236l33 178h123l-33 -178q134 -27 96 -236l-35 -201h-122l36 215q20 115 -53 115q-74 0 -94 -115l-129 -739q-20 -115 53 -115q74 0 94 115l43 244h123l-41 -230q-38 -207 -180 -237l-35 -209h-123l37 211q-40 9 -63.5 34t-33.5 74.5t5 126.5z " />
<glyph unicode="&#xa3;" horiz-adv-x="692" d="M-41 0l21 127h92l69 393h-92l21 115h92l22 131h-92l21 115h92l74 411q14 80 42 139t58 89.5t69 48.5t66 22t59 4q24 0 44.5 -2.5t45 -10t41.5 -21.5t34.5 -36.5t24 -54.5t9 -76t-9.5 -102l-23 -129h-127l27 160q14 83 -12.5 119.5t-73.5 36.5q-48 0 -88.5 -38t-54.5 -118 l-78 -442h297l-21 -115h-297l-22 -131h297l-21 -115h-297l-69 -393h352l-21 -127h-571z" />
<glyph unicode="&#xa4;" horiz-adv-x="868" d="M31 375l116 131q-30 56 -33.5 125t11.5 164q11 75 44.5 152t74.5 120l-68 131l107 70l65 -123q79 39 187 39q112 0 182 -43l112 127l82 -70l-120 -135q29 -56 32 -123.5t-12 -159.5q-11 -74 -44.5 -150.5t-74.5 -119.5l74 -135l-109 -68l-67 125q-81 -41 -193 -41 q-109 0 -174 39l-108 -123zM240 725q-9 -57 5.5 -105t59 -80t113.5 -32q53 0 99 19t77.5 50t52 69t27.5 79l22 125q7 42 -0.5 80t-28 69t-60 49.5t-91.5 18.5q-42 0 -79.5 -11.5t-66 -32t-51.5 -48t-37 -59.5t-20 -66z" />
<glyph unicode="&#xa5;" horiz-adv-x="651" d="M6 295l21 115h206l23 131h-207l21 114h190l-45 914h129l21 -762l290 762h129l-370 -914h192l-20 -114h-207l-23 -131h207l-20 -115h-207l-51 -295h-123l51 295h-207z" />
<glyph unicode="&#xa6;" horiz-adv-x="311" d="M-90 -451l145 834h127l-145 -834h-127zM123 762l147 835h127l-147 -835h-127z" />
<glyph unicode="&#xa7;" horiz-adv-x="679" d="M0 270l18 113h123l-22 -137q-16 -74 -8.5 -112t57.5 -38q49 0 76 34.5t41 111.5q12 69 5 122.5t-26.5 85t-45.5 64.5t-51 61.5t-43.5 74.5t-23 104t10.5 151q24 134 74 197t128 72q0 57 13 133q11 68 30.5 117.5t42.5 79t54 47t60.5 23t66.5 5.5q109 0 148.5 -57.5 t12.5 -208.5l-26 -148h-123l24 146q17 83 8 119t-61 36q-47 0 -72 -30.5t-40 -112.5q-11 -60 -9.5 -108.5t12.5 -79.5t28 -59.5t37 -48.5t40 -46t37 -52.5t27 -67t11 -91t-11 -123.5q-23 -131 -71.5 -193.5t-129.5 -74.5q0 -64 -10 -123q-26 -149 -89 -210.5t-176 -61.5 q-118 0 -147.5 67t0.5 219zM238 922q-11 -91 -6.5 -140.5t28 -91.5t47.5 -65t52.5 -59.5t43.5 -76.5q38 7 60.5 41.5t34.5 102.5q13 59 7 108.5t-19 79t-36 60.5t-44.5 53.5t-43.5 57t-34 71.5q-37 -5 -57.5 -36.5t-32.5 -104.5z" />
<glyph unicode="&#xa8;" horiz-adv-x="522" d="M178 1382q6 37 36 62.5t67 25.5t58 -25.5t15 -62.5q-6 -36 -37 -62t-69 -26q-37 0 -56.5 26t-13.5 62zM446 1382q6 37 36 62.5t67 25.5t58.5 -25.5t15.5 -62.5q-6 -36 -37.5 -62t-69.5 -26q-37 0 -56.5 26t-13.5 62z" />
<glyph unicode="&#xaa;" horiz-adv-x="475" d="M43 465l18 115h349l-19 -115h-348zM106 977q22 118 63.5 185t121.5 67q84 0 112 -96l29 167q7 44 9 71t-2 47.5t-16.5 29t-35.5 8.5q-43 0 -64.5 -34t-35.5 -119h-123q24 141 78 203.5t168 62.5q106 0 139 -61.5t6 -217.5l-96 -545h-94l-5 95q-14 -22 -26 -37 t-32.5 -34.5t-47 -29.5t-57.5 -10q-74 0 -94.5 64t3.5 184zM229 977q-13 -69 -3.5 -103t44.5 -34q36 0 65.5 34t41.5 113q20 123 -55 123q-37 0 -59 -31.5t-34 -101.5z" />
<glyph unicode="&#xab;" horiz-adv-x="600" d="M25 547l208 346h127l-210 -346l90 -342h-127zM254 547l209 346h127l-211 -346l90 -342h-127z" />
<glyph unicode="&#xac;" d="M82 688l18 111h701l-72 -406h-115l54 295h-586z" />
<glyph unicode="&#xad;" horiz-adv-x="395" d="M57 541l21 114h264l-20 -114h-265z" />
<glyph unicode="&#xaf;" horiz-adv-x="491" d="M168 1315l18 102h414l-18 -102h-414z" />
<glyph unicode="&#xb0;" horiz-adv-x="475" d="M166 1294q14 82 80.5 139.5t150.5 57.5q85 0 130.5 -59t31.5 -138q-15 -84 -82 -140t-149 -56q-83 0 -130 56.5t-32 139.5zM252 1294q-8 -46 18 -78t72 -32t85 32.5t46 77.5q8 46 -19 78.5t-73 32.5t-83.5 -32.5t-45.5 -78.5z" />
<glyph unicode="&#xb1;" d="M8 166l19 110h700l-18 -110h-701zM104 713l19 110h293l53 295h115l-54 -295h293l-18 -110h-293l-53 -295h-115l53 295h-293z" />
<glyph unicode="&#xb2;" horiz-adv-x="436" d="M109 848l20 108q8 44 37 88.5t66.5 82.5t74.5 75.5t66 81t37 84.5l12 62q6 34 -5.5 52.5t-35.5 18.5q-54 0 -66 -71l-16 -89h-102l18 101q13 73 61 107t119 34q74 0 111 -36t24 -105l-16 -84q-7 -42 -37 -87t-67.5 -85t-75.5 -80t-68 -85t-37 -87h195l-16 -86h-299z" />
<glyph unicode="&#xb3;" horiz-adv-x="432" d="M125 975l16 90h105l-15 -80q-6 -34 5.5 -53t35.5 -19q52 0 64 72l24 133q5 26 -10.5 41.5t-30 19t-26.5 3.5q-5 0 -11 -1t-10 -1l15 80q9 -3 18 -3q29 0 56 13.5t34 48.5l21 111q12 71 -39 71q-53 0 -66 -71l-16 -84h-105l17 94q25 141 184 141q155 0 131 -141l-16 -97 q-8 -51 -30 -79t-70 -39q43 -16 54 -46.5t3 -82.5l-23 -121q-24 -141 -182 -141q-77 0 -111 36t-22 105z" />
<glyph unicode="&#xb4;" horiz-adv-x="200" d="M129 1315l127 207h145l-163 -207h-109z" />
<glyph unicode="&#xb5;" horiz-adv-x="606" d="M-72 -408l277 1569h123l-166 -944q-20 -123 45 -123q80 0 112 176l156 891h123l-203 -1161h-96l-2 94q-70 -104 -129 -104q-23 0 -43 14l-74 -412h-123z" />
<glyph unicode="&#xb6;" horiz-adv-x="819" d="M90 831l72 410q18 103 44.5 167.5t69 100t93.5 48t131 12.5h379l-310 -1747h-127l287 1626h-100l-287 -1628h-127l121 684h-25q-63 0 -104.5 7.5t-73 28t-44.5 57.5t-13.5 94t14.5 140z" />
<glyph unicode="&#xb7;" horiz-adv-x="303" d="M63 580q6 35 37 60.5t66 25.5t55.5 -25.5t14.5 -60.5t-36 -60.5t-65 -25.5t-56.5 25.5t-15.5 60.5z" />
<glyph unicode="&#xb8;" horiz-adv-x="376" d="M-109 -326l33 80q27 -18 68 -18q35 0 59 18t29 45q5 25 -13 44.5t-57 19.5q-12 0 -20 -2l59 139h84l-39 -94q44 0 71.5 -34t20.5 -81q-9 -55 -63 -97t-125 -42q-58 0 -107 22z" />
<glyph unicode="&#xb9;" horiz-adv-x="329" d="M170 1399l16 96l164 76h84l-129 -723h-106l108 610z" />
<glyph unicode="&#xba;" horiz-adv-x="473" d="M45 465l18 115h349l-19 -115h-348zM106 971l64 356q24 137 85 189.5t155 52.5q45 0 76 -10t55.5 -37t28 -74t-6.5 -121l-63 -356q-24 -136 -85.5 -189t-154.5 -53q-45 0 -76 10.5t-55.5 37.5t-28.5 74t6 120zM227 956q-20 -114 54 -114t94 114l67 385q20 115 -53 115 q-74 0 -94 -115z" />
<glyph unicode="&#xbb;" horiz-adv-x="600" d="M-4 205l213 342l-92 346h127l90 -346l-211 -342h-127zM225 205l213 342l-92 346h127l90 -346l-211 -342h-127z" />
<glyph unicode="&#xbc;" horiz-adv-x="872" d="M68 0l698 1569h104l-698 -1569h-104zM176 1399l17 96l163 76h84l-129 -723h-106l108 610zM426 199l12 80l207 444h148l-80 -444h67l-12 -80h-68l-36 -199h-97l37 199h-178zM528 279h88l66 362z" />
<glyph unicode="&#xbd;" horiz-adv-x="933" d="M68 0l698 1569h104l-698 -1569h-104zM176 1399l17 96l163 76h84l-129 -723h-106l108 610zM471 0l21 109q8 44 37 88.5t66 82.5t74 75.5t66 80.5t37 84l12 62q6 34 -5.5 52.5t-35.5 18.5q-53 0 -65 -71l-16 -88h-103l19 100q13 73 61 107t119 34q74 0 111 -36t24 -105 l-16 -84q-7 -42 -37 -87t-68 -85t-75.5 -80t-67.5 -85t-37 -87h194l-16 -86h-299z" />
<glyph unicode="&#xbe;" horiz-adv-x="919" d="M115 975l16 90h105l-15 -80q-6 -34 5.5 -53t35.5 -19q52 0 64 72l24 133q5 26 -10.5 41.5t-30 19t-26.5 3.5q-5 0 -11 -1t-10 -1l14 80q9 -3 19 -3q29 0 56 13.5t34 48.5l21 111q12 71 -39 71q-53 0 -66 -71l-16 -84h-105l17 94q25 141 184 141q155 0 131 -141l-16 -97 q-8 -50 -30 -78.5t-71 -39.5q43 -16 54.5 -46.5t3.5 -82.5l-23 -121q-24 -141 -182 -141q-77 0 -111 36t-22 105zM119 0l698 1569h105l-699 -1569h-104zM475 199l12 80l207 444h148l-80 -444h67l-12 -80h-67l-37 -199h-97l37 199h-178zM578 279h88l65 362z" />
<glyph unicode="&#xbf;" horiz-adv-x="559" d="M-78 -78l37 211q26 142 88.5 225t181.5 93l101 454h86l-78 -563q-16 4 -39 4q-26 0 -53 -5.5t-59.5 -18.5t-56 -42t-30.5 -69l-57 -324q-14 -80 12 -117.5t74 -37.5q49 0 89 37.5t54 117.5l47 265h127l-40 -230q-29 -162 -108 -234.5t-192 -72.5q-237 0 -184 307z M324 1143q6 35 35.5 60.5t64.5 25.5t56.5 -25.5t15.5 -60.5t-37 -60.5t-66 -25.5t-55 25.5t-14 60.5z" />
<glyph unicode="&#xc0;" horiz-adv-x="589" d="M-90 0l487 1571h144l-64 -1571h-127l23 389h-223l-113 -389h-127zM186 506h191l51 840zM375 1929h145l53 -207h-108z" />
<glyph unicode="&#xc1;" horiz-adv-x="589" d="M-90 0l487 1571h144l-64 -1571h-127l23 389h-223l-113 -389h-127zM186 506h191l51 840zM428 1722l127 207h145l-163 -207h-109z" />
<glyph unicode="&#xc2;" horiz-adv-x="589" d="M-90 0l487 1571h144l-64 -1571h-127l23 389h-223l-113 -389h-127zM186 506h191l51 840zM307 1722l154 207h143l80 -207h-109l-57 127l-96 -127h-115z" />
<glyph unicode="&#xc3;" horiz-adv-x="589" d="M-90 0l487 1571h144l-64 -1571h-127l23 389h-223l-113 -389h-127zM186 506h191l51 840zM295 1722q3 13 12 30.5t25.5 42t45 40.5t62.5 16q29 0 69.5 -15t53.5 -15t22 7t12 14l3 7h119q-20 -59 -62 -94t-90 -35q-28 0 -63 17.5t-53 17.5q-30 0 -41 -33h-115z" />
<glyph unicode="&#xc4;" horiz-adv-x="589" d="M-90 0l487 1571h144l-64 -1571h-127l23 389h-223l-113 -389h-127zM186 506h191l51 840zM287 1790q6 37 35.5 62.5t66.5 25.5t58.5 -25.5t15.5 -62.5q-6 -36 -37.5 -62t-69.5 -26q-37 0 -56 26t-13 62zM555 1790q6 37 35.5 62.5t66.5 25.5t58.5 -25.5t15.5 -62.5 q-6 -36 -37 -62t-69 -26q-37 0 -56.5 26t-13.5 62z" />
<glyph unicode="&#xc5;" horiz-adv-x="589" d="M-90 0l487 1571h144l-64 -1571h-127l23 389h-223l-113 -389h-127zM186 506h191l51 840zM375 1786q9 55 53 93t100 38q55 0 86.5 -37.5t22.5 -93.5q-9 -55 -53.5 -93t-100.5 -38q-55 0 -86 37.5t-22 93.5zM432 1786q-6 -31 12.5 -52.5t49.5 -21.5q29 0 54.5 20.5 t31.5 53.5q5 31 -13 52.5t-49 21.5q-32 0 -56.5 -22.5t-29.5 -51.5z" />
<glyph unicode="&#xc6;" horiz-adv-x="903" d="M-111 0l676 1569h463l-22 -127h-291l-105 -588h277l-23 -127h-276l-107 -600h291l-20 -127h-418l67 389h-223l-164 -389h-125zM231 504h191l149 852z" />
<glyph unicode="&#xc7;" horiz-adv-x="608" d="M14 -326l35 80q27 -18 68 -18q35 0 59 18t29 45q5 25 -13 44.5t-57 19.5q-12 0 -20 -2l47 114q-46 5 -77.5 22.5t-53.5 55.5t-24 98.5t11 149.5l172 967q17 97 46.5 163.5t70 101t83 48.5t97.5 14q46 0 79.5 -9t62 -31.5t41 -60t16 -93.5t-11.5 -133l-43 -244h-127 l51 299q14 82 -11.5 119t-72.5 37q-50 0 -90.5 -38.5t-54.5 -117.5l-189 -1077q-14 -81 11.5 -118.5t74.5 -37.5t89.5 38.5t54.5 117.5l49 278h127l-41 -223q-30 -170 -93.5 -242.5t-162.5 -83.5l-27 -69q44 0 71.5 -34t20.5 -81q-9 -55 -63 -97t-125 -42q-57 0 -109 22z " />
<glyph unicode="&#xc8;" horiz-adv-x="546" d="M-23 0l277 1569h418l-23 -127h-291l-104 -588h276l-22 -127h-277l-106 -600h291l-21 -127h-418zM362 1929h146l53 -207h-108z" />
<glyph unicode="&#xc9;" horiz-adv-x="546" d="M-23 0l277 1569h418l-23 -127h-291l-104 -588h276l-22 -127h-277l-106 -600h291l-21 -127h-418zM410 1722l127 207h145l-164 -207h-108z" />
<glyph unicode="&#xca;" horiz-adv-x="546" d="M-23 0l277 1569h418l-23 -127h-291l-104 -588h276l-22 -127h-277l-106 -600h291l-21 -127h-418zM299 1722l154 207h143l80 -207h-109l-57 127l-96 -127h-115z" />
<glyph unicode="&#xcb;" horiz-adv-x="546" d="M-23 0l277 1569h418l-23 -127h-291l-104 -588h276l-22 -127h-277l-106 -600h291l-21 -127h-418zM274 1790q6 37 36 62.5t67 25.5t58.5 -25.5t15.5 -62.5q-6 -36 -37.5 -62t-69.5 -26q-37 0 -56.5 26t-13.5 62zM543 1790q6 37 35.5 62.5t66.5 25.5t58.5 -25.5t15.5 -62.5 q-6 -36 -37.5 -62t-69.5 -26q-37 0 -56 26t-13 62z" />
<glyph unicode="&#xcc;" horiz-adv-x="286" d="M-23 0l277 1569h127l-277 -1569h-127zM221 1929h146l53 -207h-109z" />
<glyph unicode="&#xcd;" horiz-adv-x="286" d="M-23 0l277 1569h127l-277 -1569h-127zM279 1722l127 207h145l-164 -207h-108z" />
<glyph unicode="&#xce;" horiz-adv-x="286" d="M-23 0l277 1569h127l-277 -1569h-127zM158 1722l153 207h144l80 -207h-109l-57 127l-97 -127h-114z" />
<glyph unicode="&#xcf;" horiz-adv-x="286" d="M-23 0l277 1569h127l-277 -1569h-127zM137 1790q6 37 36 62.5t67 25.5t58 -25.5t15 -62.5q-6 -36 -37 -62t-69 -26q-37 0 -56.5 26t-13.5 62zM406 1790q6 37 35.5 62.5t66.5 25.5t58.5 -25.5t15.5 -62.5q-6 -36 -37.5 -62t-69.5 -26q-37 0 -56 26t-13 62z" />
<glyph unicode="&#xd0;" horiz-adv-x="626" d="M-23 0l127 727h-67l22 127h68l127 715h195q63 0 104 -7.5t72.5 -28t44.5 -58t13 -94.5t-15 -140l-160 -913q-18 -104 -44 -168t-68.5 -99.5t-93.5 -48t-130 -12.5h-195zM125 117h104q60 0 93.5 35.5t48.5 119.5l180 1024q15 85 -5.5 120.5t-80.5 35.5h-105l-106 -598h123 l-23 -127h-123z" />
<glyph unicode="&#xd1;" horiz-adv-x="688" d="M-23 0l277 1569h121l88 -1114l192 1114h127l-276 -1569h-131l-82 1098l-189 -1098h-127zM344 1722q3 13 12 30.5t25.5 42t45 40.5t62.5 16q29 0 69.5 -15t53.5 -15t22 7t12 14l3 7h119q-20 -59 -62 -94t-90 -35q-28 0 -63 17.5t-53 17.5q-30 0 -41 -33h-115z" />
<glyph unicode="&#xd2;" horiz-adv-x="630" d="M23 301l172 967q17 97 46.5 163.5t70 101t83 48.5t97.5 14q57 0 96.5 -15t68 -52t32 -100t-10.5 -160l-172 -967q-17 -97 -46.5 -163.5t-70 -101.5t-83 -49t-97.5 -14q-57 0 -96.5 15t-68 52.5t-32 100.5t10.5 160zM141 246q-14 -81 11.5 -118.5t74.5 -37.5t89.5 38.5 t54.5 117.5l188 1077q14 81 -11.5 118.5t-74.5 37.5t-89 -38.5t-54 -117.5zM389 1929h146l53 -207h-109z" />
<glyph unicode="&#xd3;" horiz-adv-x="630" d="M23 301l172 967q17 97 46.5 163.5t70 101t83 48.5t97.5 14q57 0 96.5 -15t68 -52t32 -100t-10.5 -160l-172 -967q-17 -97 -46.5 -163.5t-70 -101.5t-83 -49t-97.5 -14q-57 0 -96.5 15t-68 52.5t-32 100.5t10.5 160zM141 246q-14 -81 11.5 -118.5t74.5 -37.5t89.5 38.5 t54.5 117.5l188 1077q14 81 -11.5 118.5t-74.5 37.5t-89 -38.5t-54 -117.5zM438 1722l127 207h146l-164 -207h-109z" />
<glyph unicode="&#xd4;" horiz-adv-x="630" d="M23 301l172 967q17 97 46.5 163.5t70 101t83 48.5t97.5 14q57 0 96.5 -15t68 -52t32 -100t-10.5 -160l-172 -967q-17 -97 -46.5 -163.5t-70 -101.5t-83 -49t-97.5 -14q-57 0 -96.5 15t-68 52.5t-32 100.5t10.5 160zM141 246q-14 -81 11.5 -118.5t74.5 -37.5t89.5 38.5 t54.5 117.5l188 1077q14 81 -11.5 118.5t-74.5 37.5t-89 -38.5t-54 -117.5zM328 1722l153 207h144l80 -207h-109l-57 127l-97 -127h-114z" />
<glyph unicode="&#xd5;" horiz-adv-x="630" d="M23 301l172 967q17 97 46.5 163.5t70 101t83 48.5t97.5 14q57 0 96.5 -15t68 -52t32 -100t-10.5 -160l-172 -967q-17 -97 -46.5 -163.5t-70 -101.5t-83 -49t-97.5 -14q-57 0 -96.5 15t-68 52.5t-32 100.5t10.5 160zM141 246q-14 -81 11.5 -118.5t74.5 -37.5t89.5 38.5 t54.5 117.5l188 1077q14 81 -11.5 118.5t-74.5 37.5t-89 -38.5t-54 -117.5zM315 1722q3 13 12 30.5t26 41.5t45.5 40.5t62.5 16.5q29 0 69.5 -15t53.5 -15t22 7t12 14l3 7h118q-20 -59 -61.5 -94t-89.5 -35q-28 0 -63.5 17.5t-53.5 17.5q-30 0 -41 -33h-115z" />
<glyph unicode="&#xd6;" horiz-adv-x="630" d="M23 301l172 967q17 97 46.5 163.5t70 101t83 48.5t97.5 14q57 0 96.5 -15t68 -52t32 -100t-10.5 -160l-172 -967q-17 -97 -46.5 -163.5t-70 -101.5t-83 -49t-97.5 -14q-57 0 -96.5 15t-68 52.5t-32 100.5t10.5 160zM141 246q-14 -81 11.5 -118.5t74.5 -37.5t89.5 38.5 t54.5 117.5l188 1077q14 81 -11.5 118.5t-74.5 37.5t-89 -38.5t-54 -117.5zM305 1790q6 37 36 62.5t67 25.5t58 -25.5t15 -62.5q-6 -36 -37 -62t-69 -26q-37 0 -56.5 26t-13.5 62zM573 1790q6 37 36 62.5t67 25.5t58.5 -25.5t15.5 -62.5q-6 -36 -37.5 -62t-69.5 -26 q-37 0 -56.5 26t-13.5 62z" />
<glyph unicode="&#xd7;" d="M135 537l246 208l-172 207l92 78l170 -207l246 209l67 -82l-245 -209l172 -206l-93 -78l-169 207l-246 -209z" />
<glyph unicode="&#xd8;" horiz-adv-x="630" d="M18 -109l43 127q-75 72 -38 283l172 967q18 101 46 167t67.5 100.5t82 47t101.5 12.5q50 0 90 -12l30 92h76l-45 -131q70 -77 35 -276l-172 -967q-32 -182 -106 -255t-191 -73q-38 0 -84 11l-31 -93h-76zM133 207l406 1245q-27 27 -66 27q-54 0 -90.5 -33.5t-52.5 -122.5 zM166 111q24 -21 61 -21q49 0 89.5 38.5t54.5 117.5l188 1071z" />
<glyph unicode="&#xd9;" horiz-adv-x="638" d="M27 301l225 1268h127l-234 -1323q-14 -78 10.5 -117t75.5 -39t90.5 39t53.5 117l233 1323h127l-225 -1268q-16 -96 -45.5 -162t-69.5 -101.5t-84 -50t-100 -14.5q-44 0 -77 9t-61 30.5t-40.5 59t-17 94t11.5 135.5zM387 1929h145l54 -207h-109z" />
<glyph unicode="&#xda;" horiz-adv-x="638" d="M27 301l225 1268h127l-234 -1323q-14 -78 10.5 -117t75.5 -39t90.5 39t53.5 117l233 1323h127l-225 -1268q-16 -96 -45.5 -162t-69.5 -101.5t-84 -50t-100 -14.5q-44 0 -77 9t-61 30.5t-40.5 59t-17 94t11.5 135.5zM453 1722l127 207h145l-164 -207h-108z" />
<glyph unicode="&#xdb;" horiz-adv-x="638" d="M27 301l225 1268h127l-234 -1323q-14 -78 10.5 -117t75.5 -39t90.5 39t53.5 117l233 1323h127l-225 -1268q-16 -96 -45.5 -162t-69.5 -101.5t-84 -50t-100 -14.5q-44 0 -77 9t-61 30.5t-40.5 59t-17 94t11.5 135.5zM332 1722l153 207h144l80 -207h-109l-57 127l-97 -127 h-114z" />
<glyph unicode="&#xdc;" horiz-adv-x="638" d="M27 301l225 1268h127l-234 -1323q-14 -78 10.5 -117t75.5 -39t90.5 39t53.5 117l233 1323h127l-225 -1268q-16 -96 -45.5 -162t-69.5 -101.5t-84 -50t-100 -14.5q-44 0 -77 9t-61 30.5t-40.5 59t-17 94t11.5 135.5zM309 1790q6 37 36 62.5t67 25.5t58 -25.5t15 -62.5 q-6 -36 -37 -62t-69 -26q-37 0 -56.5 26t-13.5 62zM578 1790q6 37 35.5 62.5t66.5 25.5t58.5 -25.5t15.5 -62.5q-6 -36 -37.5 -62t-69.5 -26q-37 0 -56 26t-13 62z" />
<glyph unicode="&#xdd;" horiz-adv-x="606" d="M139 0l103 586l-49 983h129l20 -762l291 762h129l-397 -983l-103 -586h-123zM440 1722l127 207h146l-164 -207h-109z" />
<glyph unicode="&#xde;" horiz-adv-x="600" d="M-23 0l277 1569h127l-59 -334h67q64 0 106 -8.5t73 -29t43.5 -58.5t12.5 -94t-14 -138l-43 -241q-18 -104 -44 -168t-68.5 -99.5t-93.5 -48t-130 -12.5h-67l-60 -338h-127zM186 465h105q60 0 93 35.5t48 120.5l57 331q15 85 -5.5 120.5t-80.5 35.5h-104z" />
<glyph unicode="&#xdf;" horiz-adv-x="559" d="M-33 0l234 1329q25 140 90.5 196t171.5 56q104 0 151 -55.5t21 -196.5l-19 -100q-42 -227 -202 -271q149 -30 112 -247l-77 -441q-13 -74 -28.5 -122.5t-41 -88t-64.5 -57.5t-94 -18q-38 0 -80 10l19 102q16 -2 35 -2q29 0 49.5 7.5t32.5 17.5t21 33.5t13 42.5t11 57 l69 389q40 241 -69 260l18 109q121 27 162 264l12 69q22 125 -72 125t-116 -125l-236 -1343h-123z" />
<glyph unicode="&#xe0;" horiz-adv-x="514" d="M2 291l4 24q29 169 70.5 240.5t122.5 71.5q46 0 72.5 -23t41.5 -74l68 379q15 86 5 121t-52 35t-64 -34.5t-37 -121.5l-20 -118h-123l19 108q26 151 79 215t168 64q106 0 139.5 -61.5t6.5 -217.5l-158 -899h-96l-2 94q-19 -30 -36 -50t-52 -40t-76 -20q-75 0 -92 71.5 t12 235.5zM117 248q-14 -78 -5.5 -116t44.5 -38q82 0 112 176l15 86q13 74 1 113t-53 39t-61.5 -36.5t-34.5 -119.5zM264 1522h146l53 -207h-109z" />
<glyph unicode="&#xe1;" horiz-adv-x="514" d="M2 291l4 24q29 169 70.5 240.5t122.5 71.5q46 0 72.5 -23t41.5 -74l68 379q15 86 5 121t-52 35t-64 -34.5t-37 -121.5l-20 -118h-123l19 108q26 151 79 215t168 64q106 0 139.5 -61.5t6.5 -217.5l-158 -899h-96l-2 94q-19 -30 -36 -50t-52 -40t-76 -20q-75 0 -92 71.5 t12 235.5zM117 248q-14 -78 -5.5 -116t44.5 -38q82 0 112 176l15 86q13 74 1 113t-53 39t-61.5 -36.5t-34.5 -119.5zM301 1315l127 207h145l-163 -207h-109z" />
<glyph unicode="&#xe2;" horiz-adv-x="514" d="M2 291l4 24q29 169 70.5 240.5t122.5 71.5q46 0 72.5 -23t41.5 -74l68 379q15 86 5 121t-52 35t-64 -34.5t-37 -121.5l-20 -118h-123l19 108q26 151 79 215t168 64q106 0 139.5 -61.5t6.5 -217.5l-158 -899h-96l-2 94q-19 -30 -36 -50t-52 -40t-76 -20q-75 0 -92 71.5 t12 235.5zM117 248q-14 -78 -5.5 -116t44.5 -38q82 0 112 176l15 86q13 74 1 113t-53 39t-61.5 -36.5t-34.5 -119.5zM193 1315l153 207h143l80 -207h-108l-58 127l-96 -127h-114z" />
<glyph unicode="&#xe3;" horiz-adv-x="514" d="M2 291l4 24q29 169 70.5 240.5t122.5 71.5q46 0 72.5 -23t41.5 -74l68 379q15 86 5 121t-52 35t-64 -34.5t-37 -121.5l-20 -118h-123l19 108q26 151 79 215t168 64q106 0 139.5 -61.5t6.5 -217.5l-158 -899h-96l-2 94q-19 -30 -36 -50t-52 -40t-76 -20q-75 0 -92 71.5 t12 235.5zM117 248q-14 -78 -5.5 -116t44.5 -38q82 0 112 176l15 86q13 74 1 113t-53 39t-61.5 -36.5t-34.5 -119.5zM180 1315q3 13 12 30.5t26 41.5t45.5 40.5t62.5 16.5q29 0 69.5 -15.5t53.5 -15.5t22 7.5t11 14.5l3 7h119q-20 -59 -61.5 -94t-89.5 -35q-28 0 -63.5 17.5 t-53.5 17.5q-30 0 -41 -33h-115z" />
<glyph unicode="&#xe4;" horiz-adv-x="514" d="M2 291l4 24q29 169 70.5 240.5t122.5 71.5q46 0 72.5 -23t41.5 -74l68 379q15 86 5 121t-52 35t-64 -34.5t-37 -121.5l-20 -118h-123l19 108q26 151 79 215t168 64q106 0 139.5 -61.5t6.5 -217.5l-158 -899h-96l-2 94q-19 -30 -36 -50t-52 -40t-76 -20q-75 0 -92 71.5 t12 235.5zM117 248q-14 -78 -5.5 -116t44.5 -38q82 0 112 176l15 86q13 74 1 113t-53 39t-61.5 -36.5t-34.5 -119.5zM172 1382q6 37 35.5 62.5t66.5 25.5t58.5 -25.5t15.5 -62.5q-6 -36 -37 -62t-69 -26q-37 0 -56.5 26t-13.5 62zM440 1382q6 37 36 62.5t67 25.5t58 -25.5 t15 -62.5q-6 -36 -37 -62t-69 -26q-37 0 -56.5 26t-13.5 62z" />
<glyph unicode="&#xe5;" horiz-adv-x="514" d="M2 291l4 24q29 169 70.5 240.5t122.5 71.5q46 0 72.5 -23t41.5 -74l68 379q15 86 5 121t-52 35t-64 -34.5t-37 -121.5l-20 -118h-123l19 108q26 151 79 215t168 64q106 0 139.5 -61.5t6.5 -217.5l-158 -899h-96l-2 94q-19 -30 -36 -50t-52 -40t-76 -20q-75 0 -92 71.5 t12 235.5zM117 248q-14 -78 -5.5 -116t44.5 -38q82 0 112 176l15 86q13 74 1 113t-53 39t-61.5 -36.5t-34.5 -119.5zM264 1399q9 55 53.5 93t100.5 38q55 0 86 -37.5t22 -93.5q-9 -55 -53 -93t-100 -38q-55 0 -86.5 37.5t-22.5 93.5zM322 1399q-6 -31 12 -52.5t49 -21.5 q29 0 54.5 20.5t31.5 53.5q5 31 -12.5 52.5t-48.5 21.5q-32 0 -56.5 -22.5t-29.5 -51.5z" />
<glyph unicode="&#xe6;" horiz-adv-x="774" d="M2 291l4 24q29 176 72 244t121 68q46 0 72.5 -23t41.5 -74l68 379q15 86 5 121t-52 35t-64 -34.5t-37 -121.5l-20 -118h-123l19 108q26 151 79 215t168 64q48 0 77.5 -14t43.5 -50q54 64 148 64q45 0 76 -10t55.5 -37t28 -74t-6.5 -121l-69 -401h-271l-61 -342 q-11 -97 55 -97q76 0 96 115l29 172h123l-27 -158q-23 -135 -84.5 -188t-156.5 -53q-70 0 -111.5 28.5t-48.5 98.5q-33 -58 -72 -92.5t-98 -34.5q-75 0 -92 71.5t12 235.5zM117 248q-14 -78 -5.5 -116t44.5 -38q82 0 112 176l15 86q13 74 1 113t-53 39t-61.5 -36.5 t-34.5 -119.5zM457 645h147l53 305q20 115 -53 115q-74 0 -94 -115z" />
<glyph unicode="&#xe7;" horiz-adv-x="501" d="M-43 -326l35 80q27 -18 67 -18q35 0 59 18t29 45q5 26 -12.5 45t-56.5 19q-13 0 -21 -2l52 125q-74 10 -105.5 64t-9.5 175l125 711q24 137 85 189.5t154 52.5q94 0 136 -52.5t18 -189.5l-35 -201h-123l37 215q20 115 -53 115q-74 0 -94 -115l-129 -739q-20 -115 53 -115 q74 0 94 115l43 244h123l-41 -230q-22 -120 -71 -173.5t-123 -63.5l-31 -82q44 0 71.5 -34t20.5 -81q-9 -55 -63 -97t-125 -42q-57 0 -109 22z" />
<glyph unicode="&#xe8;" horiz-adv-x="512" d="M-2 225l125 711q24 137 85 189.5t154 52.5q94 0 136 -52.5t18 -189.5l-70 -401h-270l-57 -324q-20 -115 53 -115q74 0 94 115l29 172h123l-27 -158q-23 -133 -84 -187t-155 -54q-96 0 -136.5 54.5t-17.5 186.5zM195 645h147l53 305q20 115 -53 115q-74 0 -94 -115z M260 1522h146l53 -207h-109z" />
<glyph unicode="&#xe9;" horiz-adv-x="512" d="M-2 225l125 711q24 137 85 189.5t154 52.5q94 0 136 -52.5t18 -189.5l-70 -401h-270l-57 -324q-20 -115 53 -115q74 0 94 115l29 172h123l-27 -158q-23 -133 -84 -187t-155 -54q-96 0 -136.5 54.5t-17.5 186.5zM195 645h147l53 305q20 115 -53 115q-74 0 -94 -115z M309 1315l127 207h146l-164 -207h-109z" />
<glyph unicode="&#xea;" horiz-adv-x="512" d="M-2 225l125 711q24 137 85 189.5t154 52.5q94 0 136 -52.5t18 -189.5l-70 -401h-270l-57 -324q-20 -115 53 -115q74 0 94 115l29 172h123l-27 -158q-23 -133 -84 -187t-155 -54q-96 0 -136.5 54.5t-17.5 186.5zM195 645h147l53 305q20 115 -53 115q-74 0 -94 -115z M197 1315l153 207h144l79 -207h-108l-57 127l-97 -127h-114z" />
<glyph unicode="&#xeb;" horiz-adv-x="509" d="M-4 225l125 711q24 137 85 189.5t154 52.5q94 0 136 -52.5t18 -189.5l-70 -401h-270l-57 -324q-20 -115 53 -115q74 0 94 115l29 172h123l-27 -158q-23 -133 -84 -187t-155 -54q-96 0 -136.5 54.5t-17.5 186.5zM174 1382q6 37 35.5 62.5t66.5 25.5t58.5 -25.5t15.5 -62.5 q-6 -36 -37 -62t-69 -26q-37 0 -56.5 26t-13.5 62zM193 645h147l53 305q20 115 -53 115q-74 0 -94 -115zM442 1382q6 37 36 62.5t67 25.5t58 -25.5t15 -62.5q-6 -36 -37 -62t-69 -26q-37 0 -56.5 26t-13.5 62z" />
<glyph unicode="&#xec;" horiz-adv-x="258" d="M-35 0l203 1161h123l-203 -1161h-123zM135 1522h146l53 -207h-109z" />
<glyph unicode="&#xed;" horiz-adv-x="258" d="M-35 0l203 1161h123l-203 -1161h-123zM193 1315l126 207h146l-164 -207h-108z" />
<glyph unicode="&#xee;" horiz-adv-x="258" d="M-35 0l203 1161h123l-203 -1161h-123zM70 1315l153 207h144l79 -207h-108l-57 127l-97 -127h-114z" />
<glyph unicode="&#xef;" horiz-adv-x="258" d="M-35 0l203 1161h123l-203 -1161h-123zM49 1382q6 37 36 62.5t67 25.5t58 -25.5t15 -62.5q-6 -36 -37 -62t-69 -26q-37 0 -56.5 26t-13.5 62zM317 1382q6 37 36 62.5t67 25.5t58.5 -25.5t15.5 -62.5q-6 -36 -37.5 -62t-69.5 -26q-37 0 -56.5 26t-13.5 62z" />
<glyph unicode="&#xf0;" horiz-adv-x="522" d="M0 225l125 707q23 130 70 189t104 59q48 0 83 -34t42 -75q16 111 15 176.5t-23 104.5l-99 -82l-43 51l99 82q-46 39 -105 57l62 90q18 -5 55 -24t45 -25l33 -24l86 73l43 -51l-84 -69q43 -61 46.5 -166.5t-30.5 -298.5l-131 -740q-24 -136 -85 -188.5t-154 -52.5 q-35 0 -62 6.5t-50.5 22.5t-34.5 43t-15 69t8 100zM121 211q-20 -115 53 -115q74 0 94 115l123 698q27 158 -53 158q-67 0 -90 -137z" />
<glyph unicode="&#xf1;" horiz-adv-x="528" d="M-33 0l203 1161h96l2 -94q19 30 36 50t52 40.5t76 20.5q51 0 74.5 -31t24.5 -99.5t-19 -177.5l-152 -870h-122l159 913q14 78 5.5 116t-44.5 38q-80 0 -112 -176l-156 -891h-123zM193 1315q3 13 12 30.5t25.5 42t45 40.5t62.5 16q29 0 69.5 -15.5t53.5 -15.5t22 7.5 t12 14.5l3 7h118q-20 -59 -61.5 -94t-89.5 -35q-28 0 -63.5 17.5t-53.5 17.5q-30 0 -41 -33h-114z" />
<glyph unicode="&#xf2;" horiz-adv-x="520" d="M0 225l125 711q24 137 85 189.5t155 52.5q45 0 76 -10t55.5 -37t28 -74t-6.5 -121l-125 -711q-24 -136 -85 -188.5t-154 -52.5q-35 0 -62 6.5t-50.5 22.5t-34.5 43t-15 69t8 100zM121 211q-20 -115 53 -115q74 0 94 115l129 739q20 115 -53 115q-74 0 -94 -115zM266 1522 h146l53 -207h-109z" />
<glyph unicode="&#xf3;" horiz-adv-x="520" d="M0 225l125 711q24 137 85 189.5t155 52.5q45 0 76 -10t55.5 -37t28 -74t-6.5 -121l-125 -711q-24 -136 -85 -188.5t-154 -52.5q-35 0 -62 6.5t-50.5 22.5t-34.5 43t-15 69t8 100zM121 211q-20 -115 53 -115q74 0 94 115l129 739q20 115 -53 115q-74 0 -94 -115zM311 1315 l127 207h146l-164 -207h-109z" />
<glyph unicode="&#xf4;" horiz-adv-x="520" d="M0 225l125 711q24 137 85 189.5t155 52.5q45 0 76 -10t55.5 -37t28 -74t-6.5 -121l-125 -711q-24 -136 -85 -188.5t-154 -52.5q-35 0 -62 6.5t-50.5 22.5t-34.5 43t-15 69t8 100zM121 211q-20 -115 53 -115q74 0 94 115l129 739q20 115 -53 115q-74 0 -94 -115zM201 1315 l153 207h144l80 -207h-109l-57 127l-97 -127h-114z" />
<glyph unicode="&#xf5;" horiz-adv-x="518" d="M-2 225l125 711q24 137 85 189.5t154 52.5q94 0 136 -52.5t18 -189.5l-125 -711q-24 -136 -85 -188.5t-154 -52.5q-35 0 -62 6.5t-50.5 22.5t-34.5 43t-15 69t8 100zM119 211q-20 -115 53 -115q74 0 94 115l129 739q20 115 -53 115q-74 0 -94 -115zM186 1315 q3 13 12 30.5t26 41.5t45.5 40.5t62.5 16.5q29 0 69.5 -15.5t53.5 -15.5t22 7.5t12 14.5l3 7h118q-20 -59 -61.5 -94t-89.5 -35q-28 0 -63.5 17.5t-53.5 17.5q-30 0 -41 -33h-115z" />
<glyph unicode="&#xf6;" horiz-adv-x="516" d="M-2 225l125 711q24 137 85 189.5t154 52.5q94 0 136 -52.5t18 -189.5l-125 -711q-24 -136 -85 -188.5t-154 -52.5q-35 0 -62 6.5t-50.5 22.5t-34.5 43t-15 69t8 100zM119 211q-20 -115 53 -115q74 0 94 115l129 739q20 115 -53 115q-74 0 -94 -115zM178 1382 q6 37 36 62.5t67 25.5t58 -25.5t15 -62.5q-6 -36 -37 -62t-69 -26q-37 0 -56.5 26t-13.5 62zM446 1382q6 37 36 62.5t67 25.5t58.5 -25.5t15.5 -62.5q-6 -36 -37.5 -62t-69.5 -26q-37 0 -56.5 26t-13.5 62z" />
<glyph unicode="&#xf7;" d="M100 688l19 111h700l-18 -111h-701zM322 444q6 35 35.5 60.5t64.5 25.5t56.5 -25.5t15.5 -60.5t-37 -60.5t-66 -25.5t-55 25.5t-14 60.5zM426 1042q6 35 36.5 60.5t65.5 25.5t55.5 -25.5t14.5 -60.5t-35.5 -60.5t-64.5 -25.5t-56.5 25.5t-15.5 60.5z" />
<glyph unicode="&#xf8;" horiz-adv-x="520" d="M0 225l125 711q14 78 37 128.5t56 74t65 31.5t79 8q30 0 62 -7l31 91h63l-39 -117q67 -54 39 -209l-125 -711q-13 -71 -36 -119.5t-55.5 -74.5t-67 -36.5t-78.5 -10.5q-34 0 -58 6l-32 -99h-64l41 121q-71 49 -43 213zM119 209l266 842q-17 14 -43 14q-37 0 -58 -23 t-34 -92zM137 106q10 -10 35 -10q76 0 96 115l123 704z" />
<glyph unicode="&#xf9;" horiz-adv-x="528" d="M14 291l152 870h123l-160 -913q-14 -78 -5.5 -116t44.5 -38q81 0 113 176l155 891h123l-203 -1161h-96l-2 94q-19 -30 -36 -50t-52 -40t-76 -20q-51 0 -74.5 31t-24.5 99t19 177zM262 1522h146l53 -207h-109z" />
<glyph unicode="&#xfa;" horiz-adv-x="528" d="M14 291l152 870h123l-160 -913q-14 -78 -5.5 -116t44.5 -38q81 0 113 176l155 891h123l-203 -1161h-96l-2 94q-19 -30 -36 -50t-52 -40t-76 -20q-51 0 -74.5 31t-24.5 99t19 177zM317 1315l127 207h146l-164 -207h-109z" />
<glyph unicode="&#xfb;" horiz-adv-x="528" d="M14 291l152 870h123l-160 -913q-14 -78 -5.5 -116t44.5 -38q81 0 113 176l155 891h123l-203 -1161h-96l-2 94q-19 -30 -36 -50t-52 -40t-76 -20q-51 0 -74.5 31t-24.5 99t19 177zM205 1315l153 207h144l80 -207h-109l-57 127l-97 -127h-114z" />
<glyph unicode="&#xfc;" horiz-adv-x="526" d="M14 291l152 870h123l-160 -913q-14 -78 -5.5 -116t44.5 -38q81 0 113 176l155 891h123l-203 -1161h-96l-2 94q-19 -30 -36 -50t-52 -40t-76 -20q-51 0 -74.5 31t-24.5 99t19 177zM184 1382q6 37 36 62.5t67 25.5t58 -25.5t15 -62.5q-6 -36 -37 -62t-69 -26 q-37 0 -56.5 26t-13.5 62zM453 1382q6 37 35.5 62.5t66.5 25.5t58.5 -25.5t15.5 -62.5q-6 -36 -37.5 -62t-69.5 -26q-37 0 -56 26t-13 62z" />
<glyph unicode="&#xfd;" horiz-adv-x="501" d="M-53 -410l125 347l51 1224h131l-70 -964l277 964h131l-514 -1571h-131zM315 1315l127 207h146l-164 -207h-109z" />
<glyph unicode="&#xfe;" horiz-adv-x="524" d="M-106 -408l348 1977h123l-86 -488q19 28 33 45t45.5 34.5t70.5 17.5q75 0 93.5 -68t-11.5 -240l-100 -579q-30 -166 -72.5 -236.5t-118.5 -70.5q-89 0 -119 92l-86 -484h-120zM135 270q-32 -176 51 -176q36 0 57.5 37t35.5 117l116 665q14 78 5.5 116t-44.5 38 q-80 0 -112 -176z" />
<glyph unicode="&#xff;" horiz-adv-x="501" d="M-53 -410l125 347l51 1224h131l-70 -964l277 964h131l-514 -1571h-131zM174 1382q6 37 35.5 62.5t66.5 25.5t58.5 -25.5t15.5 -62.5q-6 -36 -37 -62t-69 -26q-37 0 -56.5 26t-13.5 62zM442 1382q6 37 36 62.5t67 25.5t58 -25.5t15 -62.5q-6 -36 -37 -62t-69 -26 q-37 0 -56.5 26t-13.5 62z" />
<glyph unicode="&#x152;" horiz-adv-x="899" d="M25 301l172 967q17 97 46.5 163.5t70 101t83 48.5t97.5 14q71 0 122 -26h408l-23 -127h-290l-105 -588h277l-23 -127h-276l-107 -600h291l-20 -127h-408q-62 -27 -133 -27q-42 0 -73.5 8.5t-60.5 30t-42 58.5t-17.5 94t11.5 137zM143 246q-14 -81 11.5 -118.5t74.5 -37.5 q48 0 88.5 35.5t51.5 103.5l196 1108q12 67 -14.5 104.5t-75.5 37.5q-51 0 -90 -39t-53 -117z" />
<glyph unicode="&#x153;" horiz-adv-x="782" d="M0 225l125 711q24 137 85 189.5t155 52.5q92 0 122 -64q54 64 148 64q45 0 76 -10t55.5 -37t28 -74t-6.5 -121l-69 -401h-270l-58 -324q-20 -115 53 -115q75 0 95 115l28 172h123l-26 -158q-23 -133 -84.5 -187t-155.5 -54q-92 0 -123 63q-56 -63 -149 -63q-34 0 -60 6 t-49.5 22t-34.5 43t-15.5 69t7.5 101zM121 211q-20 -115 53 -115q74 0 94 115l129 739q20 115 -53 115q-74 0 -94 -115zM467 645h147l54 305q20 115 -54 115t-94 -115z" />
<glyph unicode="&#x178;" horiz-adv-x="606" d="M139 0l103 586l-49 983h129l20 -762l291 762h129l-397 -983l-103 -586h-123zM293 1790q6 37 35.5 62.5t66.5 25.5t58.5 -25.5t15.5 -62.5q-6 -36 -37.5 -62t-69.5 -26q-37 0 -56 26t-13 62zM561 1790q6 37 36 62.5t67 25.5t58 -25.5t15 -62.5q-6 -36 -37 -62t-69 -26 q-37 0 -56.5 26t-13.5 62z" />
<glyph unicode="&#x2c6;" horiz-adv-x="454" d="M168 1315l154 207h143l80 -207h-109l-57 127l-96 -127h-115z" />
<glyph unicode="&#x2dc;" horiz-adv-x="479" d="M168 1315q3 13 12 30.5t25.5 42t45 40.5t62.5 16q29 0 69.5 -15.5t53.5 -15.5t22 7.5t12 14.5l3 7h119q-20 -59 -62 -94t-90 -35q-28 0 -63 17.5t-53 17.5q-30 0 -41 -33h-115z" />
<glyph unicode="&#x2000;" horiz-adv-x="964" />
<glyph unicode="&#x2001;" horiz-adv-x="1929" />
<glyph unicode="&#x2002;" horiz-adv-x="964" />
<glyph unicode="&#x2003;" horiz-adv-x="1929" />
<glyph unicode="&#x2004;" horiz-adv-x="643" />
<glyph unicode="&#x2005;" horiz-adv-x="482" />
<glyph unicode="&#x2006;" horiz-adv-x="321" />
<glyph unicode="&#x2007;" horiz-adv-x="321" />
<glyph unicode="&#x2008;" horiz-adv-x="241" />
<glyph unicode="&#x2009;" horiz-adv-x="385" />
<glyph unicode="&#x200a;" horiz-adv-x="107" />
<glyph unicode="&#x2010;" horiz-adv-x="395" d="M57 541l21 114h264l-20 -114h-265z" />
<glyph unicode="&#x2011;" horiz-adv-x="395" d="M57 541l21 114h264l-20 -114h-265z" />
<glyph unicode="&#x2012;" horiz-adv-x="395" d="M57 541l21 114h264l-20 -114h-265z" />
<glyph unicode="&#x2013;" horiz-adv-x="524" d="M57 541l21 114h393l-20 -114h-394z" />
<glyph unicode="&#x2014;" horiz-adv-x="794" d="M57 541l21 114h663l-20 -114h-664z" />
<glyph unicode="&#x2018;" horiz-adv-x="321" d="M131 1122l272 447h70l-192 -447h-150z" />
<glyph unicode="&#x2019;" horiz-adv-x="315" d="M135 1122l193 447h149l-272 -447h-70z" />
<glyph unicode="&#x201a;" horiz-adv-x="382" d="M-113 -276l189 446h149l-270 -446h-68z" />
<glyph unicode="&#x201c;" horiz-adv-x="577" d="M131 1122l272 447h70l-192 -447h-150zM387 1122l272 447h70l-192 -447h-150z" />
<glyph unicode="&#x201d;" horiz-adv-x="571" d="M135 1122l193 447h149l-272 -447h-70zM391 1122l193 447h149l-272 -447h-70z" />
<glyph unicode="&#x201e;" horiz-adv-x="638" d="M-113 -276l189 446h149l-270 -446h-68zM141 -276l191 446h149l-270 -446h-70z" />
<glyph unicode="&#x2022;" horiz-adv-x="550" d="M119 786q15 79 82 136t145 57q32 0 62.5 -11t57 -32.5t37.5 -60.5t1 -89q-17 -87 -80 -139.5t-141 -52.5q-81 0 -130 55t-34 137z" />
<glyph unicode="&#x2026;" horiz-adv-x="909" d="M-27 70q6 34 37.5 60t67.5 26t54.5 -25.5t12.5 -60.5t-35.5 -60.5t-64.5 -25.5t-56.5 25.5t-15.5 60.5zM276 70q6 34 37.5 60t67.5 26t55 -25.5t13 -60.5t-36 -60.5t-65 -25.5t-56.5 25.5t-15.5 60.5zM580 70q6 34 37 60t67 26t55 -25.5t13 -60.5t-36 -60.5t-65 -25.5 t-56 25.5t-15 60.5z" />
<glyph unicode="&#x202f;" horiz-adv-x="385" />
<glyph unicode="&#x2039;" horiz-adv-x="370" d="M25 547l208 346h127l-210 -346l90 -342h-127z" />
<glyph unicode="&#x203a;" horiz-adv-x="370" d="M-4 205l213 342l-92 346h127l90 -346l-211 -342h-127z" />
<glyph unicode="&#x205f;" horiz-adv-x="482" />
<glyph unicode="&#x20ac;" horiz-adv-x="675" d="M55 602l21 115h78l22 131h-80l21 115h80l55 305q33 185 107 256t190 71q44 0 77 -8.5t62 -30.5t42 -59t17 -93.5t-12 -135.5l-18 -103h-127l26 158q14 82 -11.5 119t-72.5 37q-50 0 -90.5 -38.5t-54.5 -117.5l-63 -360h309l-21 -115h-309l-22 -131h311l-21 -115h-311 l-61 -356q-14 -81 11.5 -118.5t74.5 -37.5q50 0 90 40t53 116l23 135h127l-15 -80q-17 -97 -46 -163t-69 -101t-83.5 -49.5t-98.5 -14.5q-57 0 -96.5 15t-68 52.5t-32 100.5t10.5 160l53 301h-78z" />
<glyph unicode="&#xe000;" horiz-adv-x="1157" d="M0 0v1157h1157v-1157h-1157z" />
</font>
</defs>
</svg>
